# xmcd
#
# Track frame offsets: 
#        225
#        11611
#        23191
#        34531
#        47382
#        59023
#        70179
#        79136
#        89416
#        102343
#        116132
#        125925
#        139088
#        151903
#        165044
#        177068
#        191132
#
# Disc length: 2712 seconds
#
# Revision: 2
# Processed by: cddbd v1.5.1PL0 Copyright (c) Steve Scherf et al.
# Submitted via: ExactAudioCopy v0.95a5
#
DISCID=df0a9511
DTITLE=Various Artist - King Anthology Of Risque Blues [CD1]
DYEAR=2001
DGENRE=Blues
TTITLE0=Billy Ward and The Dominoes  - Sixty Minute Man
TTITLE1=Little Willie John - Leave My Kitten Alone
TTITLE2=Hank Ballard and The Midnighters  - Sexy Ways
TTITLE3=Wynonie Harris  - Lolly Pop Mama
TTITLE4=The Swallows  - It Ain't The Meat
TTITLE5=Roy Brown  - Butcher Pete (Pt. 1)
TTITLE6=Billy Ward and The Dominoes  - You Can't Keep A Good Man Down
TTITLE7=Wynonie Harris  - Shake That Thing
TTITLE8=Roy Brown  - Boogie At Midnight
TTITLE9=Bull Moose Jackson  - I Want A Bow Legged Woman
TTITLE10=Orville "Fats" Noel - Ride, Daddy, Ride
TTITLE11=Fluffy Hunter  - The Walkin' Blues
TTITLE12=The Swallows  - Roll, Roll, Pretty Baby
TTITLE13=Little Esther  - Ring Ding Doo
TTITLE14=Roy Brown  - Shake 'Em Up Baby
TTITLE15=Wynonie Harris  - I Want My Fanny Brown
TTITLE16=Hank Ballard and The Midnighters - Work With Me Annie
EXTD=YEAR: 2001
EXTT0=
EXTT1=
EXTT2=
EXTT3=
EXTT4=
EXTT5=
EXTT6=
EXTT7=
EXTT8=
EXTT9=
EXTT10=
EXTT11=
EXTT12=
EXTT13=
EXTT14=
EXTT15=
EXTT16=
PLAYORDER=
